<?xml version="1.0" encoding="UTF-8" standalone="no"?><!DOCTYPE svg PUBLIC "-//W3C//DTD SVG 1.1//EN" "http://www.w3.org/Graphics/SVG/1.1/DTD/svg11.dtd"><svg width="100%" height="100%" viewBox="0 0 2917 1875" version="1.1" xmlns="http://www.w3.org/2000/svg" xmlns:xlink="http://www.w3.org/1999/xlink" xml:space="preserve" xmlns:serif="http://www.serif.com/" style="fill-rule:evenodd;clip-rule:evenodd;stroke-linejoin:round;stroke-miterlimit:2;"><g id="Layer_1"><path d="M2584.54,70.833c87.43,14.288 262.692,142.709 237.5,258.334c12.621,41.508 19.567,84.233 8.334,133.333c-34.6,151.25 -100.975,292.517 -241.667,395.833c-15.279,15.275 -30.558,30.555 -45.833,45.834c-49.534,34.062 -103.542,63.837 -154.167,95.833c-35.104,22.188 -76.267,25.608 -100,58.333c-43.267,59.634 -64.95,171.909 -62.5,250c14.321,8.784 20.05,14.08 20.833,37.5c-15.366,18.592 -36.512,35.588 -50,54.167c-13.229,18.246 -18.787,50.467 -37.5,62.5c-9.725,1.388 -19.445,2.775 -29.166,4.167c-1.392,-1.392 -2.779,-2.779 -4.167,-4.167c-8.387,-147.379 84.183,-229.479 87.5,-375c-6.321,-2.242 -7.05,-2.812 -16.667,-4.167c-5.4,3.663 -10.279,3.73 -20.833,4.167c-2.242,-6.321 -2.812,-7.05 -4.167,-16.667c20.571,-19.862 57.621,-36.441 70.834,-62.5c17.983,-35.487 20.712,-88.662 29.166,-125c4.496,-19.341 21.563,-51.6 29.167,-70.833c7.117,-17.971 2.342,-28.317 8.333,-45.833c25.867,-75.729 41.996,-135.625 70.834,-212.5c15.225,-40.625 32.983,-90.209 54.166,-129.167c14.463,-26.617 37.775,-49.287 45.834,-83.333c12.654,-53.475 -33.125,-80.592 -33.334,-141.667c18.559,-21.892 40.9,-40.975 58.334,-62.5c11.108,-13.733 19.496,-35.383 33.333,-45.833c12.967,-9.792 33.038,-10.904 45.833,-20.834Zm-200,12.5c0.955,55.171 -48.629,56.459 -54.166,112.5c24.15,9.88 55.379,12.917 58.333,45.834c24.338,35.483 -3.837,89.616 -16.667,125c-9.67,26.65 -16.841,64.008 -12.5,79.166c-19.062,43.838 -33.266,98.088 -45.833,141.667c10.521,7.292 10.988,7.654 12.5,25c-46.025,39.167 -36.25,77.708 -58.333,129.167c-44.013,102.55 -61.721,246.3 -145.834,333.333l-8.333,0l0,-4.167c13.838,-19.204 17.067,-58.421 20.833,-75c8.784,-38.7 25.73,-71.962 37.5,-108.333c6.442,-19.862 21.25,-69.896 16.667,-79.167c2.429,-24.62 28.783,-64.879 25,-83.333c-5.104,-12.917 -1.562,-9.429 -16.667,-12.5c-18.716,20.4 -56.825,20.483 -83.333,33.333c-33.717,16.355 -166.442,84.809 -183.333,108.334c-14.325,19.946 -16.234,45.379 -29.167,66.666c-23.75,39.063 -51.721,81.475 -75,120.834c-15.262,25.779 -20.871,79.737 -50,120.833c-7.746,10.917 -23.854,15.625 -33.333,25c-7.309,-2.625 -4.046,-0.8 -8.334,-4.167l-4.166,0c16.508,-47.346 26.337,-96.096 50,-137.5c28.021,-49.029 64.391,-95.833 79.166,-158.333c-1.391,-1.392 -2.779,-2.779 -4.166,-4.167c-12.9,2.117 -13.613,3.35 -25,0c13.383,-35.816 34.616,-87.812 58.333,-116.666c16.771,-20.417 48.663,-35.871 62.5,-58.334c44.896,-72.883 88.038,-152.346 129.167,-233.333c17.95,-35.35 25.191,-71.008 45.833,-104.167c18.733,-30.087 56.163,-60.575 70.833,-100c-9.791,-12.154 -5.991,-22.866 -4.166,-41.666c83.783,-26.305 94.616,-136.096 191.666,-145.834Zm166.667,150c-4.012,7.359 -5.246,6.996 -8.333,16.667c30.625,42.15 42.566,82.692 41.666,137.5c-39.95,33.646 -50.433,96.3 -75,145.833c-32.537,65.609 -75.104,165.604 -112.5,250c-7.762,17.517 -4.516,31.146 -12.5,50c-13.037,30.817 -35.766,66.234 -41.666,104.167c6.316,2.221 7.046,2.812 16.666,4.167c22.775,-28.455 61.196,-45.521 91.667,-66.667c103.663,-71.979 290.4,-238.958 254.167,-391.667c-2.779,-25 -5.559,-50 -8.334,-75c-21.704,-65.833 -71.72,-162.829 -145.833,-175Zm-933.333,45.834l12.5,-0l-0,8.333c14.321,26.492 -20.521,79.567 -29.167,100c-11.146,26.3 -8.142,47.012 -16.667,75c-13.141,43.142 -46.354,214.358 8.334,258.333c5.762,4.6 11.979,6.213 20.833,8.334c12.917,-16.042 37.567,-25 54.167,-37.5c21.7,-16.338 35.466,-42.85 54.166,-62.5c29.2,-30.696 65.171,-58.646 91.667,-91.667c70.713,-88.075 128.4,-191.946 229.167,-250l-0,8.333c11.858,13.646 8.887,43.575 -0,66.667c-7.884,20.467 -28.125,42.725 -37.5,62.5c-14.238,30 -20,56.421 -33.334,87.5c-69.516,162.029 -144.133,311.754 -225,466.667c-36.529,69.983 -44.133,148.87 -120.833,179.166l0,-16.666c34.671,-41.167 59.408,-152.05 83.333,-208.334c53.4,-125.662 94.93,-215.4 137.5,-345.833c-6.32,-2.242 -7.05,-2.813 -16.666,-4.167c-17.084,33.679 -55.417,59.546 -83.334,83.334c-56.129,47.829 -135.175,202.462 -233.333,183.333c-19.287,-31.512 -29.983,-69.413 -45.833,-108.333l-8.334,-0c-15.279,23.608 -30.558,47.221 -45.833,70.833c-51.667,117.379 -64.117,199.65 -116.667,308.333c-18.525,38.313 -40.887,138.767 -91.666,125c-1.392,-1.391 -2.779,-2.779 -4.167,-4.166c26.546,-31.496 23.592,-71.442 37.5,-112.5c22.775,-67.171 65.033,-144.063 70.833,-220.834c-1.391,-1.391 -2.779,-2.779 -4.166,-4.166c-1.392,1.387 -2.779,2.775 -4.167,4.166c-55.871,38.055 -89.412,111.838 -129.167,166.667c-46.495,64.096 -115.729,127.396 -179.166,175c-17.588,13.192 -34.775,39.704 -54.167,50c-42.571,22.583 -153.542,53.992 -158.333,-20.833c-11.667,-17.813 3.141,-46.304 4.166,-70.834c-6.458,-8.387 7.15,-32.05 8.334,-45.833c-0.209,-0.262 23.4,-106.375 33.333,-133.333c34.15,-92.763 64.046,-159.567 100,-229.167c13.071,-25.296 12.846,-48.942 25,-75c28.021,-60.071 66.075,-137.204 95.833,-183.333c30.296,-46.979 37.671,-106.129 100,-120.834l0,29.167c-15.608,18.542 -37.762,47.567 -45.833,70.833l4.167,0c4.462,3.125 3.941,2.5 12.5,4.167c35.866,-56.512 102.483,-119.079 175,-137.5c24.6,-6.25 40.937,5.104 66.666,8.333c24.809,32.605 50.884,55.417 66.667,100c6.925,19.584 -1.058,50.867 4.167,66.667c2.775,-1.392 5.554,-2.779 8.333,-4.167c32.358,-62.62 44.963,-149.495 87.5,-204.166c24.129,-31.025 67.15,-45.313 91.667,-75Zm-720.834,41.666c23.871,4.234 47.309,12.446 58.334,29.167c28.871,43.767 48.591,165.208 29.166,212.5c-54.775,133.263 -108.662,274.271 -179.166,383.333c-45.713,70.713 -62.434,131.525 -162.5,150l-0,-8.333c-16.634,-24.604 26.475,-120.679 37.5,-145.833c18.108,-41.354 32.341,-83.734 50,-120.834c6.612,-13.908 14.233,-45.92 12.5,-50c19.929,-30.975 33.191,-67.725 54.166,-100c20.242,-31.145 57.55,-49.983 79.167,-79.166c8.229,-11.113 11.421,-23.734 20.833,-33.334c1.63,-54.1 -22.987,-88.908 -66.666,-95.833c-12.554,6.442 -28.7,-2.658 -50,4.167c-22.275,7.133 -58.734,16.771 -79.167,29.166c-122.292,74.184 -215.575,187.171 -287.5,312.5c-12.812,22.325 -93.283,140.917 -87.5,154.167c-33.958,52.063 -46.996,105.067 -70.833,170.833c-7.434,20.5 -28.454,55.971 -25,75c2.691,14.859 -19.134,50.084 -20.834,66.667c-8.804,85.675 -39.391,244.704 66.667,304.167c44.113,24.737 90.692,9.408 137.5,-8.334c68.35,-25.904 114.271,-52.395 166.667,-91.666c43.108,-32.313 62.846,-90.334 108.333,-120.834l0,12.5c-16.825,18.992 -19.029,49.08 -33.333,70.834c-12.45,18.937 -31.513,35.208 -45.834,54.166c-48.004,63.559 -174.462,159.6 -254.166,191.667c-76.096,30.625 -220.279,35.467 -266.667,-8.333c-18.804,-17.746 -36.008,-58.475 -45.833,-83.334c-6.809,-17.208 -17.571,-95.695 -12.5,-116.666c2.412,-10.038 4.721,-60.696 8.333,-75c26.092,-103.267 61.196,-209.709 104.167,-295.834c32.237,-64.637 66.146,-159.845 104.166,-216.666c116.734,-174.446 253.038,-343.646 425,-462.5c46.459,-32.121 98.005,-68.509 150,-91.667c23.038,-10.262 54.634,-3.629 75,-16.667Zm1325,25c-33.629,36.942 -48.595,83.68 -75,129.167c-23.454,40.4 -58.87,81.508 -79.166,125c-8.838,18.942 -42.746,75.867 -33.334,91.667c4.913,3.35 7.013,3.229 16.667,4.166c35.483,-37.329 147.379,-30.07 179.167,-70.833c7.325,-10.767 10.762,-28.892 8.333,-37.5c26.338,-59.204 44.079,-133.717 41.667,-212.5c-23.092,-15.625 -30.054,-25.696 -58.334,-29.167Zm-987.5,175c-10.625,8.296 -24.029,5.505 -37.5,12.5c-30.87,16.042 -100.141,72.567 -120.833,100c-106.162,140.659 -197.621,345.746 -187.5,550c17.917,12.134 22.029,25.275 50,29.167c12.463,-13.404 38.854,-14.5 54.167,-25c28.125,-19.271 53.854,-48.229 75,-75c5.937,-7.521 18.991,-9.533 25,-16.667c82.758,-98.195 139.65,-203.925 195.833,-320.833c39.704,-82.604 54.529,-230.679 -54.167,-254.167Zm-420.833,258.334c-14.062,21.837 -77.762,112.479 -66.667,137.5l0,4.166l8.334,0c25.762,-41.562 54.425,-82.345 66.666,-137.5c-2.779,-1.391 -5.558,-2.779 -8.333,-4.166Zm1508.33,379.166c1.042,-19.566 4.08,-58.662 12.5,-66.666c21.005,-27.5 107.9,-27.121 150,-37.5c117.134,-28.854 238.384,-37.275 354.167,-37.5l0,8.333l-4.167,0c1.388,1.388 2.775,2.775 4.167,4.167c3.213,2.846 9.304,5.466 12.5,8.333l-4.167,0c-49.445,41.892 -138.541,18.4 -200,33.333c-114.325,27.759 -206.32,72.013 -325,87.5Zm-191.666,-37.5c13.525,3.455 6.371,-2.05 12.5,8.334c-5.592,10.779 -5.4,53.521 -8.334,70.833c-58.975,0.188 -132.829,23.263 -179.166,41.667c-19.913,7.916 -33.438,0.362 -54.167,8.333c-31.562,12.15 -78.821,25.521 -108.333,37.5c-15.279,1.388 -30.559,2.775 -45.834,4.167c-57.658,22.15 -131.304,44.408 -187.5,66.666l-25,0c-155.85,63.367 -313.195,132.463 -454.166,208.334c-38.525,20.729 -75.296,28.383 -112.5,50c-58.767,34.129 -122.467,65.571 -179.167,104.166c-61.475,41.838 -83.646,77.413 -187.5,83.334c-1.392,-4.167 -2.779,-8.334 -4.167,-12.5c6.421,-6.842 2.796,-11.584 8.334,-20.834c17.446,-29.204 62.862,-35.958 70.833,-75c-12.329,-9.812 -14.792,-30.208 -16.667,-50c63.071,-55.975 153.921,-85.487 237.5,-120.833c54.984,-23.267 117.671,-56.392 175,-79.167l25,0c92.359,-39.237 201.65,-73.595 295.834,-112.5c25.137,-10.383 45.658,-7.345 70.833,-16.666c87.221,-32.329 187.238,-58.213 275,-91.667c34.479,-13.146 69.825,-7.642 104.167,-20.833c55.85,-21.442 127.116,-37.05 183.333,-58.334c34.375,-13.02 76.458,-5.729 104.167,-25" style="fill:#ef3340;fill-rule:nonzero;"/></g></svg>